<svg xmlns="http://www.w3.org/2000/svg" width="20" height="21" fill="none"><path fill="url(#a)" d="m16.024 12.865-2.117-.245a1.64 1.64 0 0 0-1.366.48l-1.534 1.551a12.612 12.612 0 0 1-5.49-5.554l1.54-1.56c.36-.363.535-.868.476-1.383l-.241-2.125a1.694 1.694 0 0 0-.549-1.065 1.657 1.657 0 0 0-1.11-.427H4.192c-.942 0-1.725.793-1.667 1.745.442 7.2 6.133 12.95 13.242 13.396.94.059 1.724-.733 1.724-1.686v-1.458a1.683 1.683 0 0 0-.417-1.119 1.646 1.646 0 0 0-1.05-.55Z"/><defs><linearGradient id="a" x1="10.007" x2="10.007" y1="2.537" y2="17.681" gradientUnits="userSpaceOnUse"><stop stop-color="#FFBF00"/><stop offset=".99" stop-color="#F2A50C"/></linearGradient></defs></svg>