<svg width="32" height="32" viewBox="0 0 32 32" fill="none" xmlns="http://www.w3.org/2000/svg">
<g clip-path="url(#clip0_340_2)">
<path d="M9.43596 29.9003C13.5919 31.8629 18.4081 31.8629 22.564 29.9003V29.9003C34.3083 24.3544 34.3083 7.64558 22.564 2.09968V2.09968C18.4081 0.137136 13.5919 0.137136 9.43596 2.09968V2.09968C-2.30829 7.64558 -2.30829 24.3544 9.43596 29.9003V29.9003Z" fill="url(#paint0_linear_340_2)"/>
<path d="M16 31L31 16L16 1L1 16L16 31Z" fill="url(#paint1_linear_340_2)"/>
<path d="M10.1992 13.88C11.0646 13.1613 12.0472 12.802 13.1472 12.802C15.0246 12.802 16.3372 13.6307 17.0852 15.288C17.3786 15.9627 17.5252 16.8353 17.5252 17.906C17.5252 19.886 17.0046 21.3967 15.9632 22.438C14.9219 23.4793 13.5726 24 11.9152 24C10.9472 24 10.2066 23.934 9.69322 23.802C9.19455 23.67 8.88655 23.5673 8.76922 23.494V7.61L10.1992 7.5V13.88ZM10.1992 14.65V22.768C10.6246 22.8707 11.0866 22.922 11.5852 22.922C13.0519 22.922 14.1666 22.4967 14.9292 21.646C15.7066 20.7953 16.0952 19.6 16.0952 18.06C16.0952 16.52 15.7066 15.42 14.9292 14.76C14.3866 14.3053 13.6826 14.078 12.8172 14.078C11.9519 14.078 11.0792 14.2687 10.1992 14.65ZM19.8737 10.404C19.8737 8.40933 20.9737 7.412 23.1737 7.412C23.7457 7.412 24.2517 7.47067 24.6917 7.588L24.4717 8.82C23.9731 8.74667 23.5477 8.71 23.1957 8.71C22.8584 8.71 22.5504 8.76867 22.2717 8.886C21.6264 9.17933 21.3037 9.854 21.3037 10.91V13H24.0317V14.276H21.3037V24H19.8737V14.276H18.6417L18.8397 13H19.8737V10.404Z" fill="url(#paint2_linear_340_2)"/>
</g>
<defs>
<linearGradient id="paint0_linear_340_2" x1="16" y1="33" x2="16" y2="-1" gradientUnits="userSpaceOnUse">
<stop/>
<stop offset="1" stop-color="#161616"/>
</linearGradient>
<linearGradient id="paint1_linear_340_2" x1="16" y1="31" x2="16" y2="1" gradientUnits="userSpaceOnUse">
<stop stop-color="#020202"/>
<stop offset="1" stop-color="#161616"/>
</linearGradient>
<linearGradient id="paint2_linear_340_2" x1="16" y1="11" x2="16" y2="22" gradientUnits="userSpaceOnUse">
<stop stop-color="#33D9D9"/>
<stop offset="1" stop-color="#35C1E0"/>
</linearGradient>
<clipPath id="clip0_340_2">
<rect width="32" height="32" fill="white" transform="matrix(1 0 0 -1 0 32)"/>
</clipPath>
</defs>
</svg>
