<svg width="32" height="32" viewBox="0 0 32 32" fill="none" xmlns="http://www.w3.org/2000/svg">
<g clip-path="url(#clip0_76_188)">
<circle cx="16" cy="16" r="16" fill="white"/>
<path d="M23.5833 10.5833H22.695L20.8533 5.51325C20.7009 5.0952 20.4239 4.73396 20.0597 4.47825C19.6955 4.22255 19.2617 4.08468 18.8167 4.08325H17.0833C16.4875 4.08325 16 4.57075 16 5.16659C16 5.76242 16.4875 6.24992 17.0833 6.24992H18.8167L20.3983 10.5833H15.1875L14.7975 9.49992H14.895C15.4908 9.49992 15.9783 9.01242 15.9783 8.41659C15.9783 7.82075 15.4908 7.33325 14.895 7.33325H11.6667C11.0708 7.33325 10.5833 7.82075 10.5833 8.41659C10.5833 9.01242 11.0708 9.49992 11.6667 9.49992H12.4792L14.4508 14.9166H13.725C13.2483 12.5008 11.2225 10.7133 8.6875 10.5941C5.65417 10.4424 3 12.9666 3 15.9999C3 19.0333 5.38333 21.4166 8.41667 21.4166C11.0817 21.4166 13.2375 19.5858 13.725 17.0833H18.275C18.7517 19.4991 20.7775 21.2866 23.3125 21.4058C26.3458 21.5466 29 19.0333 29 15.9891C29 12.9666 26.6167 10.5833 23.5833 10.5833ZM9.5 17.0833H11.4717C11.0167 18.4158 9.73833 19.3366 8.2 19.2391C6.58583 19.1416 5.2425 17.7766 5.16667 16.1516C5.09083 14.2558 6.5425 12.7499 8.41667 12.7499C9.8575 12.7499 11.0383 13.6491 11.4717 14.9166H9.5C8.90417 14.9166 8.41667 15.4041 8.41667 15.9999C8.41667 16.5958 8.90417 17.0833 9.5 17.0833ZM18.275 14.9166H16.7583L15.9675 12.7499H19.25C18.7733 13.3783 18.4267 14.1041 18.275 14.9166ZM23.4533 19.2499C21.785 19.1849 20.3767 17.7658 20.3333 16.0866C20.3117 15.0466 20.7558 14.1366 21.4708 13.5299L22.1425 15.3716C22.3483 15.9349 22.9658 16.2274 23.5292 16.0216C24.0925 15.8158 24.385 15.1983 24.1792 14.6349L23.4967 12.7608L23.5075 12.7499C23.9418 12.7351 24.3747 12.8085 24.7799 12.9656C25.1851 13.1227 25.5543 13.3603 25.8651 13.664C26.1759 13.9678 26.422 14.3314 26.5884 14.7328C26.7548 15.1343 26.8381 15.5653 26.8333 15.9999C26.8333 17.8633 25.3383 19.3149 23.4533 19.2499ZM14.9167 24.6666H10.5833L17.0833 27.9166V25.7499H21.4167L14.9167 22.4999V24.6666Z" fill="url(#paint0_linear_76_188)"/>
</g>
<defs>
<linearGradient id="paint0_linear_76_188" x1="16" y1="4.08325" x2="16" y2="27.9166" gradientUnits="userSpaceOnUse">
<stop stop-color="#FFB60D"/>
<stop offset="1" stop-color="#E59317"/>
</linearGradient>
<clipPath id="clip0_76_188">
<rect width="32" height="32" fill="white"/>
</clipPath>
</defs>
</svg>
