<svg width="32" height="32" viewBox="0 0 32 32" fill="none" xmlns="http://www.w3.org/2000/svg">
<path d="M12.5 17.3666C12.8778 17.3666 13.2 17.2333 13.4667 16.9666C13.7333 16.7 13.8667 16.3777 13.8667 16C13.8667 15.6222 13.7333 15.3 13.4667 15.0333C13.2 14.7666 12.8778 14.6333 12.5 14.6333C12.1222 14.6333 11.8 14.7666 11.5333 15.0333C11.2667 15.3 11.1333 15.6222 11.1333 16C11.1333 16.3777 11.2667 16.7 11.5333 16.9666C11.8 17.2333 12.1222 17.3666 12.5 17.3666ZM17.5667 17.3666C17.9444 17.3666 18.2667 17.2333 18.5333 16.9666C18.8 16.7 18.9333 16.3777 18.9333 16C18.9333 15.6222 18.8 15.3 18.5333 15.0333C18.2667 14.7666 17.9444 14.6333 17.5667 14.6333C17.1889 14.6333 16.8667 14.7666 16.6 15.0333C16.3333 15.3 16.2 15.6222 16.2 16C16.2 16.3777 16.3333 16.7 16.6 16.9666C16.8667 17.2333 17.1889 17.3666 17.5667 17.3666ZM22.6333 17.3666C23.0111 17.3666 23.3333 17.2333 23.6 16.9666C23.8667 16.7 24 16.3777 24 16C24 15.6222 23.8667 15.3 23.6 15.0333C23.3333 14.7666 23.0111 14.6333 22.6333 14.6333C22.2556 14.6333 21.9333 14.7666 21.6667 15.0333C21.4 15.3 21.2667 15.6222 21.2667 16C21.2667 16.3777 21.4 16.7 21.6667 16.9666C21.9333 17.2333 22.2556 17.3666 22.6333 17.3666ZM4 16L9.63333 8.03329C9.92222 7.63329 10.2667 7.30551 10.6667 7.04996C11.0667 6.7944 11.5111 6.66663 12 6.66663H26C26.5556 6.66663 27.0278 6.86107 27.4167 7.24996C27.8056 7.63885 28 8.11107 28 8.66663V23.3333C28 23.8888 27.8056 24.3611 27.4167 24.75C27.0278 25.1388 26.5556 25.3333 26 25.3333H12C11.5111 25.3333 11.0667 25.2055 10.6667 24.95C10.2667 24.6944 9.92222 24.3666 9.63333 23.9666L4 16ZM6.5 16L11.6333 23.3333H26V8.66663H11.6333L6.5 16ZM26 16V8.66663V23.3333V16Z" fill="#35C1E0"/>
</svg>
