<svg width="25" height="25" viewBox="0 0 25 25" fill="none" xmlns="http://www.w3.org/2000/svg">
<path d="M12.3699 22.9167L17.0834 10.4167H19.2188L24.0626 22.9167H21.797L20.7292 19.6355H15.7292L14.5053 22.9167H12.3699ZM16.3022 17.8125H20.0001L18.1772 12.7605H18.1251L16.3022 17.8125ZM4.16675 19.7917L2.73446 18.3594L8.04696 13.0469C7.38723 12.283 6.8013 11.5148 6.28914 10.7422C5.77699 9.96966 5.32994 9.16671 4.948 8.33337H7.21362C7.50876 8.90629 7.83428 9.44883 8.19019 9.96098C8.54609 10.4731 8.94973 10.9983 9.40112 11.5365C10.1824 10.7205 10.8334 9.87417 11.3542 8.99744C11.8751 8.1207 12.3178 7.2049 12.6824 6.25004H1.04175V4.16671H8.33341V2.08337H10.4167V4.16671H17.7084V6.25004H14.7657C14.3838 7.44796 13.8759 8.62417 13.2423 9.77869C12.6086 10.9332 11.8317 12.0313 10.9115 13.073L13.4636 15.6511L12.6824 17.7605L9.37508 14.5834L4.16675 19.7917Z" fill="#35C1E0"/>
</svg>
