<svg width="359" height="34" viewBox="0 0 359 34" fill="none" xmlns="http://www.w3.org/2000/svg">
<path d="M0.0237427 33V2.08795H14.9997C18.0717 2.08795 20.3437 2.80795 21.8157 4.24795C23.2877 5.68795 24.0237 7.71995 24.0237 10.3439C24.0237 12.0079 23.6877 13.4159 23.0157 14.568C22.3437 15.688 21.4477 16.536 20.3277 17.1119C21.8317 17.528 23.0157 18.28 23.8797 19.368C24.7757 20.424 25.2237 21.992 25.2237 24.072C25.2237 27.08 24.4077 29.32 22.7757 30.792C21.1757 32.264 18.8077 33 15.6717 33H0.0237427ZM5.25574 15.2879H14.2797C16.0397 15.2879 17.2877 14.8879 18.0237 14.0879C18.7917 13.2559 19.1757 12.1519 19.1757 10.7759C19.1757 9.17595 18.7917 7.99195 18.0237 7.22395C17.2557 6.42395 15.8157 6.02395 13.7037 6.02395H5.25574V15.2879ZM5.25574 29.16H14.5677C16.4237 29.16 17.7837 28.7759 18.6477 28.0079C19.5117 27.2079 19.9437 25.8319 19.9437 23.8799C19.9437 22.2799 19.5117 21.0959 18.6477 20.3279C17.8157 19.5279 16.2797 19.128 14.0397 19.128H5.25574V29.16Z" fill="white"/>
<path d="M30.305 33V10.2479H35.105L35.393 12.8879C36.481 12.1839 37.777 11.5439 39.281 10.9679C40.785 10.3919 42.273 9.99195 43.745 9.76795V13.7519C42.849 13.9119 41.873 14.1519 40.817 14.472C39.793 14.76 38.817 15.096 37.889 15.4799C36.961 15.832 36.177 16.2 35.537 16.584V33H30.305Z" fill="white"/>
<path d="M55.763 33.4799C53.043 33.4799 50.947 32.7279 49.475 31.2239C48.035 29.7199 47.315 27.5119 47.315 24.5999V10.2479H52.547V24.5999C52.547 26.2959 52.963 27.544 53.795 28.344C54.627 29.144 55.907 29.544 57.635 29.544C58.915 29.544 60.099 29.3039 61.187 28.8239C62.275 28.3439 63.219 27.7039 64.019 26.9039V10.2479H69.203V33H64.451L64.211 30.648C63.187 31.448 61.971 32.12 60.563 32.664C59.155 33.208 57.555 33.4799 55.763 33.4799Z" fill="white"/>
<path d="M75.305 33V10.2479H80.105L80.345 12.6479C81.369 11.8479 82.585 11.1759 83.993 10.6319C85.433 10.0559 87.017 9.76795 88.745 9.76795C91.689 9.76795 93.833 10.4559 95.177 11.8319C96.521 13.2079 97.193 15.3519 97.193 18.264V33H92.009V18.504C92.009 16.7439 91.641 15.5119 90.905 14.808C90.201 14.1039 88.857 13.7519 86.873 13.7519C85.689 13.7519 84.521 13.992 83.369 14.472C82.249 14.952 81.305 15.5759 80.537 16.344V33H75.305Z" fill="white"/>
<path d="M113.482 33.4799C109.386 33.4799 106.378 32.4559 104.458 30.4079C102.57 28.3599 101.626 25.4319 101.626 21.6239C101.626 17.8159 102.586 14.8879 104.506 12.8399C106.426 10.7919 109.418 9.76795 113.482 9.76795C117.578 9.76795 120.586 10.7919 122.506 12.8399C124.426 14.8879 125.386 17.8159 125.386 21.6239C125.386 25.4319 124.426 28.3599 122.506 30.4079C120.618 32.4559 117.61 33.4799 113.482 33.4799ZM113.482 29.0639C115.882 29.0639 117.578 28.488 118.57 27.336C119.594 26.152 120.106 24.2479 120.106 21.6239C120.106 18.9999 119.594 17.1119 118.57 15.9599C117.578 14.8079 115.882 14.2319 113.482 14.2319C111.114 14.2319 109.418 14.8079 108.394 15.9599C107.402 17.1119 106.906 18.9999 106.906 21.6239C106.906 24.2479 107.402 26.152 108.394 27.336C109.418 28.488 111.114 29.0639 113.482 29.0639Z" fill="white"/>
<path d="M141.539 33V2.08795H162.563V6.16795H146.771V15.5279H160.787V19.5599H146.771V33H141.539Z" fill="white"/>
<path d="M176.309 33.4799C172.341 33.4799 169.269 32.504 167.093 30.552C164.917 28.6 163.829 25.608 163.829 21.576C163.829 17.9279 164.757 15.0479 166.613 12.9359C168.469 10.8239 171.285 9.76795 175.061 9.76795C178.517 9.76795 181.109 10.6799 182.837 12.504C184.597 14.2959 185.477 16.616 185.477 19.464V23.688H168.821C169.077 25.896 169.877 27.4159 171.221 28.2479C172.565 29.0799 174.613 29.496 177.365 29.496C178.517 29.496 179.701 29.384 180.917 29.16C182.133 28.936 183.189 28.6479 184.085 28.2959V32.136C183.061 32.584 181.877 32.92 180.533 33.144C179.221 33.368 177.813 33.4799 176.309 33.4799ZM168.821 20.2799H180.869V18.6959C180.869 17.1279 180.437 15.912 179.573 15.0479C178.709 14.1519 177.253 13.7039 175.205 13.7039C172.773 13.7039 171.093 14.2319 170.165 15.2879C169.269 16.3439 168.821 18.0079 168.821 20.2799Z" fill="white"/>
<path d="M190.571 33V10.2479H195.371L195.659 12.8879C196.747 12.1839 198.043 11.5439 199.547 10.9679C201.051 10.3919 202.539 9.99195 204.011 9.76795V13.7519C203.115 13.9119 202.139 14.1519 201.083 14.472C200.059 14.76 199.083 15.096 198.155 15.4799C197.227 15.832 196.443 16.2 195.803 16.584V33H190.571Z" fill="white"/>
<path d="M207.821 33V10.2479H212.621L212.861 12.6479C213.885 11.8479 215.101 11.1759 216.509 10.6319C217.949 10.0559 219.533 9.76795 221.261 9.76795C224.205 9.76795 226.349 10.4559 227.693 11.8319C229.037 13.2079 229.709 15.3519 229.709 18.264V33H224.525V18.504C224.525 16.7439 224.157 15.5119 223.421 14.808C222.717 14.1039 221.373 13.7519 219.389 13.7519C218.205 13.7519 217.037 13.992 215.885 14.472C214.765 14.952 213.821 15.5759 213.053 16.344V33H207.821Z" fill="white"/>
<path d="M241.971 33.4799C240.531 33.4799 239.187 33.224 237.939 32.712C236.723 32.2 235.747 31.4319 235.011 30.4079C234.275 29.3519 233.907 28.056 233.907 26.52C233.907 24.344 234.643 22.5999 236.115 21.2879C237.619 19.9439 239.923 19.2719 243.027 19.2719H250.323V18.264C250.323 17.176 250.147 16.3119 249.795 15.6719C249.475 15.0319 248.867 14.5679 247.971 14.2799C247.107 13.9919 245.828 13.8479 244.132 13.8479C241.444 13.8479 238.931 14.2479 236.595 15.0479V11.16C237.619 10.7439 238.867 10.4079 240.339 10.1519C241.811 9.89595 243.395 9.76795 245.091 9.76795C248.419 9.76795 250.947 10.4399 252.675 11.7839C254.435 13.1279 255.315 15.32 255.315 18.36V33H250.852L250.515 30.6959C249.587 31.5919 248.435 32.2799 247.059 32.7599C245.715 33.2399 244.019 33.4799 241.971 33.4799ZM243.363 29.736C244.931 29.736 246.291 29.48 247.443 28.968C248.627 28.424 249.587 27.7039 250.323 26.8079V22.8239H243.123C241.587 22.8239 240.467 23.128 239.763 23.736C239.091 24.312 238.755 25.208 238.755 26.424C238.755 27.608 239.155 28.456 239.955 28.968C240.755 29.48 241.891 29.736 243.363 29.736Z" fill="white"/>
<path d="M261.117 33V10.2479H265.917L266.158 12.6479C267.182 11.8479 268.397 11.1759 269.805 10.6319C271.245 10.0559 272.829 9.76795 274.557 9.76795C277.501 9.76795 279.646 10.4559 280.99 11.8319C282.334 13.2079 283.005 15.3519 283.005 18.264V33H277.822V18.504C277.822 16.7439 277.453 15.5119 276.717 14.808C276.013 14.1039 274.669 13.7519 272.685 13.7519C271.501 13.7519 270.333 13.992 269.181 14.472C268.061 14.952 267.117 15.5759 266.349 16.344V33H261.117Z" fill="white"/>
<path d="M297.807 33.4799C295.759 33.4799 293.951 33.128 292.383 32.424C290.815 31.72 289.599 30.552 288.735 28.92C287.871 27.288 287.439 25.096 287.439 22.344C287.439 19.624 287.903 17.3359 288.831 15.4799C289.759 13.5919 291.039 12.1679 292.671 11.2079C294.335 10.2479 296.207 9.76795 298.287 9.76795C299.663 9.76795 300.879 9.92795 301.935 10.2479C303.023 10.5679 304.063 11.0639 305.055 11.7359V0.647949H310.287V33H305.823L305.487 30.7439C304.463 31.6719 303.343 32.3599 302.127 32.8079C300.911 33.2559 299.471 33.4799 297.807 33.4799ZM299.199 29.544C301.535 29.544 303.487 28.7439 305.055 27.1439V15.7679C303.551 14.4239 301.663 13.7519 299.391 13.7519C297.183 13.7519 295.519 14.4879 294.399 15.9599C293.279 17.4319 292.719 19.5759 292.719 22.3919C292.719 25.1119 293.231 26.9839 294.255 28.0079C295.311 29.0319 296.959 29.544 299.199 29.544Z" fill="white"/>
<path d="M327.387 33.4799C323.419 33.4799 320.347 32.504 318.171 30.552C315.995 28.6 314.908 25.608 314.908 21.576C314.908 17.9279 315.835 15.0479 317.691 12.9359C319.547 10.8239 322.363 9.76795 326.139 9.76795C329.595 9.76795 332.187 10.6799 333.915 12.504C335.675 14.2959 336.555 16.616 336.555 19.464V23.688H319.9C320.156 25.896 320.955 27.4159 322.299 28.2479C323.643 29.0799 325.691 29.496 328.443 29.496C329.595 29.496 330.779 29.384 331.995 29.16C333.211 28.936 334.267 28.6479 335.163 28.2959V32.136C334.139 32.584 332.955 32.92 331.611 33.144C330.299 33.368 328.891 33.4799 327.387 33.4799ZM319.9 20.2799H331.947V18.6959C331.947 17.1279 331.515 15.912 330.651 15.0479C329.787 14.1519 328.331 13.7039 326.283 13.7039C323.851 13.7039 322.171 14.2319 321.243 15.2879C320.347 16.3439 319.9 18.0079 319.9 20.2799Z" fill="white"/>
<path d="M348.998 33.4799C347.43 33.4799 345.926 33.368 344.486 33.144C343.078 32.92 341.91 32.6479 340.982 32.3279V27.9119C342.07 28.3279 343.27 28.648 344.582 28.872C345.894 29.096 347.142 29.208 348.326 29.208C350.118 29.208 351.398 29.048 352.166 28.728C352.934 28.408 353.318 27.7839 353.318 26.8559C353.318 26.1839 353.078 25.656 352.598 25.2719C352.15 24.8879 351.462 24.536 350.534 24.216C349.638 23.896 348.486 23.512 347.078 23.0639C345.734 22.6159 344.566 22.1359 343.574 21.6239C342.582 21.0799 341.814 20.3919 341.27 19.5599C340.726 18.7279 340.454 17.6399 340.454 16.2959C340.454 14.216 341.206 12.6159 342.71 11.4959C344.214 10.3439 346.63 9.76795 349.958 9.76795C351.27 9.76795 352.518 9.86395 353.702 10.056C354.886 10.2479 355.894 10.4879 356.726 10.7759V15.1439C355.83 14.7919 354.838 14.5199 353.75 14.3279C352.694 14.136 351.702 14.0399 350.774 14.0399C349.11 14.0399 347.846 14.184 346.982 14.472C346.15 14.76 345.734 15.3359 345.734 16.1999C345.734 17.0959 346.166 17.7359 347.03 18.1199C347.926 18.4719 349.35 18.9679 351.302 19.608C353.094 20.1519 354.518 20.7279 355.574 21.3359C356.63 21.9439 357.382 22.6799 357.83 23.5439C358.31 24.3759 358.55 25.4639 358.55 26.8079C358.55 29.0479 357.734 30.7279 356.102 31.8479C354.47 32.936 352.102 33.4799 348.998 33.4799Z" fill="white"/>
</svg>
