<svg width="378" height="34" viewBox="0 0 378 34" fill="none" xmlns="http://www.w3.org/2000/svg">
<path d="M0.159912 33V2.08799H17.1519C20.2879 2.08799 22.6719 2.82399 24.3039 4.29599C25.9359 5.76799 26.7519 7.87999 26.7519 10.632C26.7519 12.232 26.4479 13.576 25.8399 14.664C25.2639 15.752 24.4959 16.616 23.5359 17.256C24.8479 17.768 25.8879 18.52 26.6559 19.512C27.4559 20.472 27.8559 21.912 27.8559 23.832C27.8559 26.744 26.9599 29 25.1679 30.6C23.3759 32.2 20.8319 33 17.5359 33H0.159912ZM8.84791 14.424H14.7039C16.9119 14.424 18.0159 13.432 18.0159 11.448C18.0159 10.456 17.7439 9.704 17.1999 9.192C16.6879 8.68 15.7759 8.424 14.4639 8.424H8.84791V14.424ZM8.84791 26.712H15.0879C16.3039 26.712 17.1999 26.456 17.7759 25.944C18.3519 25.432 18.6399 24.584 18.6399 23.4C18.6399 22.408 18.3519 21.656 17.7759 21.144C17.1999 20.632 16.2399 20.376 14.8959 20.376H8.84791V26.712Z" fill="white"/>
<path d="M31.238 33V10.248H39.926L40.166 12.072C41.094 11.528 42.278 11.032 43.718 10.584C45.158 10.136 46.614 9.86399 48.086 9.76799V16.488C47.254 16.552 46.342 16.664 45.35 16.824C44.39 16.984 43.446 17.192 42.518 17.448C41.622 17.672 40.87 17.928 40.262 18.216V33H31.238Z" fill="white"/>
<path d="M58.9003 33.48C56.2443 33.48 54.1643 32.728 52.6603 31.224C51.1563 29.72 50.4043 27.512 50.4043 24.6V10.248H59.4283V23.88C59.4283 25.864 60.4363 26.856 62.4523 26.856C63.1883 26.856 63.9083 26.696 64.6123 26.376C65.3163 26.056 65.8763 25.656 66.2923 25.176V10.248H75.3163V33H66.8683L66.6283 31.272C65.7323 31.912 64.6283 32.44 63.3163 32.856C62.0363 33.272 60.5643 33.48 58.9003 33.48Z" fill="white"/>
<path d="M79.613 33V10.248H88.061L88.301 11.976C89.165 11.4 90.301 10.888 91.709 10.44C93.149 9.99199 94.685 9.76799 96.317 9.76799C99.165 9.76799 101.245 10.472 102.557 11.88C103.869 13.288 104.525 15.464 104.525 18.408V33H95.501V19.32C95.501 18.296 95.277 17.56 94.829 17.112C94.381 16.664 93.597 16.44 92.477 16.44C91.805 16.44 91.101 16.6 90.365 16.92C89.661 17.24 89.085 17.624 88.637 18.072V33H79.613Z" fill="white"/>
<path d="M120.637 33.48C116.093 33.48 112.733 32.472 110.557 30.456C108.413 28.44 107.341 25.496 107.341 21.624C107.341 17.784 108.429 14.856 110.605 12.84C112.781 10.792 116.125 9.76799 120.637 9.76799C125.181 9.76799 128.541 10.792 130.717 12.84C132.925 14.856 134.029 17.784 134.029 21.624C134.029 25.496 132.941 28.44 130.765 30.456C128.589 32.472 125.213 33.48 120.637 33.48ZM120.637 26.904C122.109 26.904 123.165 26.488 123.805 25.656C124.477 24.824 124.813 23.48 124.813 21.624C124.813 19.8 124.477 18.472 123.805 17.64C123.165 16.776 122.109 16.344 120.637 16.344C119.197 16.344 118.157 16.776 117.517 17.64C116.877 18.472 116.557 19.8 116.557 21.624C116.557 23.48 116.877 24.824 117.517 25.656C118.157 26.488 119.197 26.904 120.637 26.904Z" fill="white"/>
<path d="M147.254 33V2.08799H170.486V8.808H156.278V14.136H168.662V20.952H156.278V33H147.254Z" fill="white"/>
<path d="M185.422 33.48C182.766 33.48 180.414 33.048 178.366 32.184C176.35 31.288 174.766 29.96 173.614 28.2C172.494 26.44 171.934 24.264 171.934 21.672C171.934 18.056 172.958 15.176 175.006 13.032C177.054 10.856 180.11 9.76799 184.174 9.76799C187.886 9.76799 190.782 10.712 192.862 12.6C194.974 14.488 196.03 17.064 196.03 20.328V24.312H180.238C180.654 25.528 181.47 26.392 182.686 26.904C183.902 27.416 185.55 27.672 187.63 27.672C188.942 27.672 190.254 27.56 191.566 27.336C192.91 27.08 193.982 26.792 194.782 26.472V31.896C192.542 32.952 189.422 33.48 185.422 33.48ZM180.238 19.416H188.254V18.6C188.254 17.704 187.966 16.968 187.39 16.392C186.846 15.816 185.87 15.528 184.462 15.528C182.894 15.528 181.79 15.864 181.15 16.536C180.542 17.176 180.238 18.136 180.238 19.416Z" fill="white"/>
<path d="M199.379 33V10.248H208.067L208.307 12.072C209.235 11.528 210.419 11.032 211.859 10.584C213.299 10.136 214.755 9.86399 216.227 9.76799V16.488C215.395 16.552 214.483 16.664 213.491 16.824C212.531 16.984 211.587 17.192 210.659 17.448C209.763 17.672 209.011 17.928 208.403 18.216V33H199.379Z" fill="white"/>
<path d="M218.785 33V10.248H227.233L227.473 11.976C228.337 11.4 229.473 10.888 230.881 10.44C232.321 9.99199 233.857 9.76799 235.489 9.76799C238.337 9.76799 240.417 10.472 241.729 11.88C243.041 13.288 243.697 15.464 243.697 18.408V33H234.673V19.32C234.673 18.296 234.449 17.56 234.001 17.112C233.553 16.664 232.769 16.44 231.649 16.44C230.977 16.44 230.273 16.6 229.537 16.92C228.833 17.24 228.257 17.624 227.809 18.072V33H218.785Z" fill="white"/>
<path d="M254.155 33.48C252.715 33.48 251.371 33.224 250.123 32.712C248.907 32.2 247.931 31.4 247.195 30.312C246.459 29.224 246.091 27.848 246.091 26.184C246.091 23.784 246.891 21.928 248.491 20.616C250.091 19.272 252.507 18.6 255.739 18.6H261.643V18.168C261.643 17.272 261.275 16.616 260.539 16.2C259.803 15.784 258.507 15.576 256.651 15.576C254.027 15.576 251.435 15.976 248.875 16.776V11.352C250.027 10.904 251.467 10.536 253.195 10.248C254.923 9.92799 256.683 9.76799 258.475 9.76799C262.091 9.76799 264.955 10.504 267.067 11.976C269.179 13.448 270.235 15.784 270.235 18.984V33H262.363L261.931 31.176C261.131 31.88 260.091 32.44 258.811 32.856C257.563 33.272 256.011 33.48 254.155 33.48ZM257.227 28.2C258.251 28.2 259.115 28.024 259.819 27.672C260.555 27.32 261.163 26.888 261.643 26.376V23.544H257.275C255.291 23.544 254.299 24.328 254.299 25.896C254.299 27.432 255.275 28.2 257.227 28.2Z" fill="white"/>
<path d="M274.332 33V10.248H282.78L283.02 11.976C283.884 11.4 285.02 10.888 286.428 10.44C287.868 9.99199 289.404 9.76799 291.036 9.76799C293.884 9.76799 295.964 10.472 297.276 11.88C298.588 13.288 299.244 15.464 299.244 18.408V33H290.22V19.32C290.22 18.296 289.996 17.56 289.548 17.112C289.1 16.664 288.316 16.44 287.196 16.44C286.524 16.44 285.82 16.6 285.084 16.92C284.38 17.24 283.804 17.624 283.356 18.072V33H274.332Z" fill="white"/>
<path d="M312.667 33.48C310.523 33.48 308.651 33.128 307.051 32.424C305.483 31.688 304.251 30.504 303.355 28.872C302.491 27.24 302.059 25.064 302.059 22.344C302.059 19.56 302.555 17.24 303.547 15.384C304.539 13.528 305.867 12.136 307.531 11.208C309.195 10.248 311.003 9.76799 312.955 9.76799C314.011 9.76799 315.051 9.87999 316.075 10.104C317.131 10.328 318.043 10.648 318.811 11.064V0.647995H327.835V33H320.011L319.579 31.224C318.683 31.928 317.675 32.488 316.555 32.904C315.467 33.288 314.171 33.48 312.667 33.48ZM315.259 26.952C316.635 26.952 317.819 26.488 318.811 25.56V17.496C317.915 16.696 316.731 16.296 315.259 16.296C314.075 16.296 313.115 16.824 312.379 17.88C311.643 18.936 311.275 20.44 311.275 22.392C311.275 24.312 311.595 25.56 312.235 26.136C312.875 26.68 313.883 26.952 315.259 26.952Z" fill="white"/>
<path d="M344.235 33.48C341.579 33.48 339.227 33.048 337.179 32.184C335.163 31.288 333.579 29.96 332.427 28.2C331.307 26.44 330.747 24.264 330.747 21.672C330.747 18.056 331.771 15.176 333.819 13.032C335.867 10.856 338.923 9.76799 342.987 9.76799C346.699 9.76799 349.595 10.712 351.675 12.6C353.787 14.488 354.843 17.064 354.843 20.328V24.312H339.051C339.467 25.528 340.283 26.392 341.499 26.904C342.715 27.416 344.363 27.672 346.443 27.672C347.755 27.672 349.067 27.56 350.379 27.336C351.723 27.08 352.795 26.792 353.595 26.472V31.896C351.355 32.952 348.235 33.48 344.235 33.48ZM339.051 19.416H347.067V18.6C347.067 17.704 346.779 16.968 346.203 16.392C345.659 15.816 344.683 15.528 343.275 15.528C341.707 15.528 340.603 15.864 339.963 16.536C339.355 17.176 339.051 18.136 339.051 19.416Z" fill="white"/>
<path d="M366.837 33.48C364.885 33.48 363.045 33.336 361.317 33.048C359.621 32.792 358.277 32.456 357.285 32.04V25.56C358.405 26.072 359.733 26.472 361.269 26.76C362.837 27.048 364.165 27.192 365.253 27.192C366.405 27.192 367.269 27.16 367.845 27.096C368.453 27.032 368.757 26.76 368.757 26.28C368.757 25.736 368.229 25.32 367.173 25.032C366.117 24.744 364.789 24.328 363.189 23.784C361.109 23.048 359.557 22.184 358.533 21.192C357.509 20.2 356.997 18.76 356.997 16.872C356.997 14.6 357.893 12.856 359.685 11.64C361.477 10.392 364.293 9.76799 368.133 9.76799C369.605 9.76799 371.125 9.87999 372.693 10.104C374.261 10.328 375.493 10.584 376.389 10.872V17.208C375.429 16.792 374.373 16.488 373.221 16.296C372.101 16.104 371.077 16.008 370.149 16.008C369.125 16.008 368.213 16.056 367.413 16.152C366.613 16.248 366.213 16.52 366.213 16.968C366.213 17.48 366.661 17.848 367.557 18.072C368.485 18.296 369.717 18.648 371.253 19.128C372.981 19.64 374.325 20.2 375.285 20.808C376.277 21.416 376.965 22.152 377.349 23.016C377.765 23.88 377.973 24.952 377.973 26.232C377.973 28.536 377.029 30.328 375.141 31.608C373.285 32.856 370.517 33.48 366.837 33.48Z" fill="white"/>
</svg>
